HIERARCHY
ROOT Hips
{
	OFFSET 0.00 0.00 0.00
	CHANNELS 6 Xposition Yposition Zposition Xrotation Yrotation Zrotation
	JOINT Spine
	{
		OFFSET 0.00000 3.24121 0.00000
		CHANNELS 3 Xrotation Yrotation Zrotation
		JOINT Head
		{
			OFFSET 0.00000 18.38296 0.00000
			CHANNELS 3 Xrotation Yrotation Zrotation
			End Site
			{
				OFFSET 0.00000 4.52755 0.00000
			}
		}
		JOINT LeftShoulder
		{
			OFFSET 0.00000 12.82826 0.00000
			CHANNELS 3 Xrotation Yrotation Zrotation
			JOINT LeftArm
			{
				OFFSET 7.74805 0.00000 0.00000
				CHANNELS 3 Xrotation Yrotation Zrotation
				JOINT LeftForeArm
				{
					OFFSET 10.63561 0.00000 0.00000
					CHANNELS 3 Yrotation Zrotation Xrotation
					JOINT LeftHand
					{
						OFFSET 8.34675 0.00000 0.00000
						CHANNELS 3 Xrotation Yrotation Zrotation
						JOINT LeftHandThumb1
						{
							OFFSET 0.00000 0.00000 0.00000
							CHANNELS 3 Xrotation Zrotation Yrotation
							End Site
							{
								OFFSET 0.00000 0.00000 3.93700
							}
						}
						End Site
						{
							OFFSET 3.93700 0.00000 0.00000
						}
					}
				}
			}
		}
		JOINT RightShoulder
		{
			OFFSET 0.00000 12.82826 0.00000
			CHANNELS 3 Xrotation Yrotation Zrotation
			JOINT RightArm
			{
				OFFSET -7.74805 0.00000 0.00000
				CHANNELS 3 Xrotation Yrotation Zrotation
				JOINT RightForeArm
				{
					OFFSET -10.63561 0.00000 0.00000
					CHANNELS 3 Yrotation Zrotation Xrotation
					JOINT RightHand
					{
						OFFSET -8.34675 0.00000 0.00000
						CHANNELS 3 Xrotation Yrotation Zrotation
						JOINT RightHandThumb1
						{
							OFFSET 0.00000 0.00000 0.00000
							CHANNELS 3 Xrotation Zrotation Yrotation
							End Site
							{
								OFFSET 0.00000 0.00000 3.93700
							}
						}
						End Site
						{
							OFFSET -3.93700 0.00000 0.00000
						}
					}
				}
			}
		}
	}
	JOINT LeftUpLeg
	{
		OFFSET 3.43402 0.00000 0.00000
		CHANNELS 3 Xrotation Yrotation Zrotation
		JOINT LeftLeg
		{
			OFFSET 0.00000 -15.71302 0.00000
			CHANNELS 3 Xrotation Yrotation Zrotation
			JOINT LeftFoot
			{
				OFFSET 0.00000 -14.43512 0.00000
				CHANNELS 3 Xrotation Yrotation Zrotation
				JOINT LeftToeBase
				{
					OFFSET 0.00000 -1.27828 4.77061
					CHANNELS 3 Xrotation Yrotation Zrotation
					End Site
					{
						OFFSET 0.00000 0.00000 2.95275
					}
				}
			}
		}
	}
	JOINT RightUpLeg
	{
		OFFSET -3.43402 0.00000 0.00000
		CHANNELS 3 Xrotation Yrotation Zrotation
		JOINT RightLeg
		{
			OFFSET 0.00000 -15.71302 0.00000
			CHANNELS 3 Xrotation Yrotation Zrotation
			JOINT RightFoot
			{
				OFFSET 0.00000 -14.43512 0.00000
				CHANNELS 3 Xrotation Yrotation Zrotation
				JOINT RightToeBase
				{
					OFFSET 0.00000 -1.27828 4.77061
					CHANNELS 3 Xrotation Yrotation Zrotation
					End Site
					{
						OFFSET 0.00000 0.00000 2.95275
					}
				}
			}
		}
	}
}
MOTION
Frames: 9
Frame Time: 0.008333
 0.2570 32.7113 -5.5240 41.5743 2.5204 -0.6094 -46.6450 -3.6040 -0.2608 5.0325 -0.6988 -6.5063 33.9783 32.4555 18.7784 -55.6877 -5.1332 -37.8544 0.8270 0.0000 17.8629 2.4636 22.8612 -6.3194 33.1476 -0.0000 26.2537 32.6272 -33.6125 -22.2457 -53.8695 8.0045 47.7200 -6.0497 -0.0000 -14.8246 -1.2683 10.8979 6.6794 32.8623 0.0000 -24.3270 -37.8997 3.8738 1.4209 0.6619 0.0000 -0.0000 -2.7074 0.9336 -2.6684 3.6011 0.0000 -0.0000 -35.8408 -10.1677 -0.6391 -2.7768 -0.0000 0.0000 -4.6037 -12.8045 14.5135 17.5188 0.0000 0.0000
 0.2614 32.7116 -5.5217 41.6007 2.5892 -0.6589 -46.6542 -3.5682 -0.2325 4.9657 -0.6371 -6.5729 34.0524 32.4479 18.6947 -55.7133 -4.9763 -38.0647 0.7498 0.0000 17.9809 2.4431 22.7743 -6.2898 33.1476 -0.0000 26.2537 32.6923 -33.6061 -22.1988 -53.8749 7.9444 47.7368 -6.0666 -0.0000 -14.8480 -1.2516 10.7876 6.6580 32.8623 0.0000 -24.3270 -37.9210 3.8078 1.4124 0.6447 0.0000 -0.0000 -2.6839 0.8997 -2.6894 3.5866 0.0000 -0.0000 -35.8513 -10.2227 -0.6497 -2.7792 -0.0000 -0.0000 -4.6110 -12.8302 14.5359 17.5345 0.0000 -0.0000
 0.2653 32.7117 -5.5195 41.6232 2.6933 -0.7252 -46.6597 -3.5591 -0.2198 4.8977 -0.5775 -6.6257 34.1374 32.4510 18.6003 -55.8480 -4.7701 -38.2940 0.6990 0.0000 18.1663 2.4341 22.6753 -6.2923 33.1476 -0.0000 26.2537 32.7437 -33.5852 -22.1413 -53.8343 7.9494 47.7342 -6.1325 -0.0000 -14.8914 -1.2504 10.8770 6.5981 32.8623 0.0000 -24.3270 -37.9475 3.6976 1.4007 0.6385 -0.0000 -0.0000 -2.6730 0.8676 -2.7736 3.6072 -0.0000 -0.0000 -35.8504 -10.3269 -0.6632 -2.7926 0.0000 0.0000 -4.6279 -12.8623 14.5395 17.5238 -0.0000 -0.0000
 0.2704 32.7119 -5.5151 41.6259 2.7921 -0.7823 -46.6507 -3.5535 -0.1957 4.8437 -0.4668 -6.7167 34.2590 32.4490 18.4532 -55.6687 -4.8632 -38.4764 0.7377 0.0000 17.9397 2.4096 22.3243 -6.3215 33.1476 -0.0000 26.2537 32.7672 -33.5745 -22.1193 -53.8049 7.9001 47.7801 -6.0479 -0.0000 -15.0879 -1.2027 10.7490 6.4223 32.8623 0.0000 -24.3270 -37.9375 3.5976 1.3802 0.6098 -0.0000 -0.0000 -2.6522 0.8465 -2.8152 3.6733 -0.0000 -0.0000 -35.8597 -10.4928 -0.6831 -2.7445 -0.0000 0.0000 -4.6725 -12.8218 14.5051 17.5506 0.0000 -0.0000
 0.2757 32.7119 -5.5131 41.6463 2.8659 -0.8419 -46.6485 -3.5267 -0.1583 4.7703 -0.3676 -6.7839 34.3667 32.4760 18.3421 -55.7624 -4.6142 -38.7319 0.5536 0.0000 17.9594 2.4508 22.3455 -6.4231 33.1476 -0.0000 26.2537 32.7859 -33.5655 -22.0898 -53.8586 7.8450 47.8131 -6.1227 -0.0000 -14.9713 -1.2216 10.7152 6.5427 32.8623 0.0000 -24.3270 -37.9564 3.5306 1.3749 0.5963 -0.0000 0.0000 -2.6405 0.7863 -2.8217 3.6308 -0.0000 -0.0000 -35.8648 -10.5278 -0.6896 -2.7407 -0.0000 -0.0000 -4.6832 -12.8731 14.4865 17.5296 0.0000 0.0000
 0.2807 32.7119 -5.5096 41.6568 2.9581 -0.9020 -46.6425 -3.4885 -0.1317 4.7019 -0.2806 -6.8466 34.4795 32.4699 18.2177 -55.6389 -4.6001 -38.9518 0.4653 0.0000 17.7347 2.4896 22.2048 -6.5629 33.1476 -0.0000 26.2537 32.8505 -33.5702 -22.0285 -53.8288 7.8460 47.8219 -6.1246 -0.0000 -14.9279 -1.2259 10.6173 6.6249 32.8623 0.0000 -24.3270 -37.9627 3.4447 1.3617 0.5804 -0.0000 -0.0000 -2.6240 0.7604 -2.8645 3.6861 -0.0000 -0.0000 -35.8518 -10.5842 -0.7022 -2.7507 -0.0000 0.0000 -4.6797 -12.9176 14.4776 17.4482 0.0000 0.0000
 0.2852 32.7116 -5.5060 41.6679 3.0389 -0.9605 -46.6377 -3.4331 -0.1009 4.6390 -0.2267 -6.9099 34.6531 32.4820 18.0577 -55.6784 -4.5053 -39.1844 0.3816 0.0000 17.7347 2.5520 22.0754 -6.7633 33.1476 -0.0000 26.2537 32.8707 -33.5698 -21.9864 -53.8216 7.8492 47.8654 -6.2019 -0.0000 -14.9618 -1.1919 10.6580 6.4185 32.8623 0.0000 -24.3270 -37.9688 3.3759 1.3521 0.5637 -0.0000 0.0000 -2.6111 0.7026 -2.8623 3.6614 -0.0000 0.0000 -35.8272 -10.5850 -0.7116 -2.7801 -0.0000 0.0000 -4.6993 -13.0241 14.4624 17.4967 -0.0000 0.0000
 0.2913 32.7112 -5.5021 41.6749 3.1493 -1.0290 -46.6315 -3.3926 -0.0794 4.5823 -0.1775 -6.9692 34.8019 32.5001 17.9070 -55.7088 -4.4578 -39.4508 0.3552 0.0000 17.7699 2.6230 21.8439 -7.0191 33.1476 -0.0000 26.2537 32.8929 -33.5682 -21.9415 -53.8396 7.7800 47.8762 -6.2231 -0.0000 -14.7497 -1.2382 10.6677 6.6597 32.8623 0.0000 -24.3270 -37.9764 3.2961 1.3312 0.5575 0.0000 0.0000 -2.6047 0.6518 -2.9083 3.7057 0.0000 -0.0000 -35.8110 -10.6954 -0.7298 -2.7853 -0.0000 0.0000 -4.7227 -13.0493 14.4711 17.5172 0.0000 0.0000
 0.2967 32.7108 -5.4985 41.6793 3.2530 -1.0929 -46.6222 -3.3412 -0.0550 4.5354 -0.0827 -7.0349 34.9386 32.4920 17.7455 -55.6604 -4.4409 -39.6868 0.3255 0.0000 17.8232 2.6937 21.6017 -7.2827 33.1476 -0.0000 26.2537 32.9151 -33.5574 -21.9112 -53.7686 7.8005 47.8995 -6.2532 -0.0000 -14.7630 -1.2347 10.7063 6.6177 32.8623 0.0000 -24.3270 -37.9854 3.2188 1.3125 0.5569 -0.0000 0.0000 -2.5969 0.5961 -2.9439 3.7535 -0.0000 -0.0000 -35.7793 -10.7162 -0.7485 -2.8135 0.0000 0.0000 -4.7369 -13.1483 14.4520 17.5312 0.0000 -0.0000
